<mxfile host="app.diagrams.net" modified="2023-08-07T08:42:04.413Z" agent="Mozilla/5.0 (Windows NT 10.0; Win64; x64) AppleWebKit/537.36 (KHTML, like Gecko) Chrome/114.0.0.0 Safari/537.36" etag="xf2B2ueQicEbHK9WKFaL" version="21.6.6" type="github">
  <diagram name="第 1 页" id="LS9TAyjhHWT86cu8HGGN">
    <mxGraphModel dx="989" dy="527" grid="1" gridSize="10" guides="1" tooltips="1" connect="1" arrows="1" fold="1" page="1" pageScale="1" pageWidth="827" pageHeight="1169" math="0" shadow="0">
      <root>
        <mxCell id="0" />
        <mxCell id="1" parent="0" />
        <mxCell id="Yu1JXXxfSo9A74xn88HE-2" value="检修方案提交审批" style="shape=umlFrame;whiteSpace=wrap;html=1;pointerEvents=0;" vertex="1" parent="1">
          <mxGeometry x="29" y="20" width="770" height="700" as="geometry" />
        </mxCell>
        <mxCell id="Yu1JXXxfSo9A74xn88HE-4" value="检修方案" style="shape=umlLifeline;perimeter=lifelinePerimeter;whiteSpace=wrap;html=1;container=1;dropTarget=0;collapsible=0;recursiveResize=0;outlineConnect=0;portConstraint=eastwest;newEdgeStyle={&quot;edgeStyle&quot;:&quot;elbowEdgeStyle&quot;,&quot;elbow&quot;:&quot;vertical&quot;,&quot;curved&quot;:0,&quot;rounded&quot;:0};fillColor=#00FFFF;" vertex="1" parent="1">
          <mxGeometry x="190" y="70" width="100" height="610" as="geometry" />
        </mxCell>
        <mxCell id="Yu1JXXxfSo9A74xn88HE-17" value="" style="html=1;points=[];perimeter=orthogonalPerimeter;outlineConnect=0;targetShapes=umlLifeline;portConstraint=eastwest;newEdgeStyle={&quot;edgeStyle&quot;:&quot;elbowEdgeStyle&quot;,&quot;elbow&quot;:&quot;vertical&quot;,&quot;curved&quot;:0,&quot;rounded&quot;:0};fillColor=#00FFFF;" vertex="1" parent="Yu1JXXxfSo9A74xn88HE-4">
          <mxGeometry x="45" y="150" width="10" height="50" as="geometry" />
        </mxCell>
        <mxCell id="Yu1JXXxfSo9A74xn88HE-5" value="工作流" style="shape=umlLifeline;perimeter=lifelinePerimeter;whiteSpace=wrap;html=1;container=1;dropTarget=0;collapsible=0;recursiveResize=0;outlineConnect=0;portConstraint=eastwest;newEdgeStyle={&quot;edgeStyle&quot;:&quot;elbowEdgeStyle&quot;,&quot;elbow&quot;:&quot;vertical&quot;,&quot;curved&quot;:0,&quot;rounded&quot;:0};fillColor=#00FF00;" vertex="1" parent="1">
          <mxGeometry x="380" y="70" width="100" height="610" as="geometry" />
        </mxCell>
        <mxCell id="Yu1JXXxfSo9A74xn88HE-6" value="工器具" style="shape=umlLifeline;perimeter=lifelinePerimeter;whiteSpace=wrap;html=1;container=1;dropTarget=0;collapsible=0;recursiveResize=0;outlineConnect=0;portConstraint=eastwest;newEdgeStyle={&quot;edgeStyle&quot;:&quot;elbowEdgeStyle&quot;,&quot;elbow&quot;:&quot;vertical&quot;,&quot;curved&quot;:0,&quot;rounded&quot;:0};fillColor=#FF99FF;" vertex="1" parent="1">
          <mxGeometry x="600" y="70" width="100" height="610" as="geometry" />
        </mxCell>
        <mxCell id="Yu1JXXxfSo9A74xn88HE-9" value="" style="html=1;points=[];perimeter=orthogonalPerimeter;outlineConnect=0;targetShapes=umlLifeline;portConstraint=eastwest;newEdgeStyle={&quot;edgeStyle&quot;:&quot;elbowEdgeStyle&quot;,&quot;elbow&quot;:&quot;vertical&quot;,&quot;curved&quot;:0,&quot;rounded&quot;:0};" vertex="1" parent="Yu1JXXxfSo9A74xn88HE-6">
          <mxGeometry x="45" y="60" width="10" height="40" as="geometry" />
        </mxCell>
        <mxCell id="Yu1JXXxfSo9A74xn88HE-10" value="查询可用工器具" style="html=1;verticalAlign=bottom;endArrow=block;edgeStyle=elbowEdgeStyle;elbow=vertical;curved=0;rounded=0;" edge="1" target="Yu1JXXxfSo9A74xn88HE-9" parent="Yu1JXXxfSo9A74xn88HE-6">
          <mxGeometry x="-0.55" y="-10" relative="1" as="geometry">
            <mxPoint x="-25" y="60" as="sourcePoint" />
            <Array as="points">
              <mxPoint x="-490" y="60" />
            </Array>
            <mxPoint as="offset" />
          </mxGeometry>
        </mxCell>
        <mxCell id="Yu1JXXxfSo9A74xn88HE-22" value="" style="html=1;points=[];perimeter=orthogonalPerimeter;outlineConnect=0;targetShapes=umlLifeline;portConstraint=eastwest;newEdgeStyle={&quot;edgeStyle&quot;:&quot;elbowEdgeStyle&quot;,&quot;elbow&quot;:&quot;vertical&quot;,&quot;curved&quot;:0,&quot;rounded&quot;:0};" vertex="1" parent="Yu1JXXxfSo9A74xn88HE-6">
          <mxGeometry x="45" y="230" width="10" height="50" as="geometry" />
        </mxCell>
        <mxCell id="Yu1JXXxfSo9A74xn88HE-7" value="" style="shape=umlLifeline;perimeter=lifelinePerimeter;whiteSpace=wrap;html=1;container=1;dropTarget=0;collapsible=0;recursiveResize=0;outlineConnect=0;portConstraint=eastwest;newEdgeStyle={&quot;edgeStyle&quot;:&quot;elbowEdgeStyle&quot;,&quot;elbow&quot;:&quot;vertical&quot;,&quot;curved&quot;:0,&quot;rounded&quot;:0};participant=umlActor;" vertex="1" parent="1">
          <mxGeometry x="90" y="70" width="20" height="620" as="geometry" />
        </mxCell>
        <mxCell id="Yu1JXXxfSo9A74xn88HE-8" value="" style="html=1;points=[];perimeter=orthogonalPerimeter;outlineConnect=0;targetShapes=umlLifeline;portConstraint=eastwest;newEdgeStyle={&quot;edgeStyle&quot;:&quot;elbowEdgeStyle&quot;,&quot;elbow&quot;:&quot;vertical&quot;,&quot;curved&quot;:0,&quot;rounded&quot;:0};fillColor=#FFFF66;" vertex="1" parent="Yu1JXXxfSo9A74xn88HE-7">
          <mxGeometry x="5" y="55" width="10" height="490" as="geometry" />
        </mxCell>
        <mxCell id="Yu1JXXxfSo9A74xn88HE-11" value="返回空闲工器具" style="html=1;verticalAlign=bottom;endArrow=open;dashed=1;endSize=8;edgeStyle=elbowEdgeStyle;elbow=vertical;curved=0;rounded=0;" edge="1" source="Yu1JXXxfSo9A74xn88HE-9" parent="1" target="Yu1JXXxfSo9A74xn88HE-8">
          <mxGeometry x="-0.0013" relative="1" as="geometry">
            <mxPoint x="480" y="205" as="targetPoint" />
            <mxPoint x="554.9999999999998" y="190.0000000000001" as="sourcePoint" />
            <Array as="points">
              <mxPoint x="610" y="170" />
              <mxPoint x="650" y="180" />
            </Array>
            <mxPoint as="offset" />
          </mxGeometry>
        </mxCell>
        <mxCell id="Yu1JXXxfSo9A74xn88HE-18" value="创建检修方案" style="html=1;verticalAlign=bottom;endArrow=block;edgeStyle=elbowEdgeStyle;elbow=vertical;curved=0;rounded=0;" edge="1" target="Yu1JXXxfSo9A74xn88HE-17" parent="1" source="Yu1JXXxfSo9A74xn88HE-7">
          <mxGeometry x="-0.0001" relative="1" as="geometry">
            <mxPoint x="160" y="180" as="sourcePoint" />
            <Array as="points">
              <mxPoint x="160" y="220" />
              <mxPoint x="173" y="230" />
            </Array>
            <mxPoint as="offset" />
          </mxGeometry>
        </mxCell>
        <mxCell id="Yu1JXXxfSo9A74xn88HE-21" value="返回检修方案id" style="html=1;verticalAlign=bottom;endArrow=open;dashed=1;endSize=8;edgeStyle=elbowEdgeStyle;elbow=vertical;curved=0;rounded=0;" edge="1" parent="1">
          <mxGeometry relative="1" as="geometry">
            <mxPoint x="239.5" y="269.9989655172414" as="sourcePoint" />
            <mxPoint x="99.81034482758605" y="269.9989655172414" as="targetPoint" />
          </mxGeometry>
        </mxCell>
        <mxCell id="Yu1JXXxfSo9A74xn88HE-23" value="创建关联" style="html=1;verticalAlign=bottom;endArrow=block;edgeStyle=elbowEdgeStyle;elbow=vertical;curved=0;rounded=0;" edge="1" target="Yu1JXXxfSo9A74xn88HE-22" parent="1" source="Yu1JXXxfSo9A74xn88HE-7">
          <mxGeometry relative="1" as="geometry">
            <mxPoint x="575" y="300" as="sourcePoint" />
            <Array as="points">
              <mxPoint x="460" y="310" />
            </Array>
          </mxGeometry>
        </mxCell>
        <mxCell id="Yu1JXXxfSo9A74xn88HE-24" value="返回结果" style="html=1;verticalAlign=bottom;endArrow=open;dashed=1;endSize=8;edgeStyle=elbowEdgeStyle;elbow=vertical;curved=0;rounded=0;" edge="1" source="Yu1JXXxfSo9A74xn88HE-22" parent="1" target="Yu1JXXxfSo9A74xn88HE-8">
          <mxGeometry x="-0.0013" relative="1" as="geometry">
            <mxPoint x="575" y="375" as="targetPoint" />
            <Array as="points">
              <mxPoint x="430" y="340" />
              <mxPoint x="480" y="370" />
              <mxPoint x="510" y="310" />
            </Array>
            <mxPoint as="offset" />
          </mxGeometry>
        </mxCell>
      </root>
    </mxGraphModel>
  </diagram>
</mxfile>
